<?xml version="1.0" encoding="UTF-8" standalone="no"?>
<!-- Created with Inkscape (http://www.inkscape.org/) -->

<svg
   width="197.121mm"
   height="215.91447mm"
   viewBox="0 0 197.121 215.91447"
   version="1.1"
   id="svg1"
   xml:space="preserve"
   sodipodi:docname="bellitek_logo.svg"
   inkscape:version="1.4.2 (f4327f4, 2025-05-13)"
   xmlns:inkscape="http://www.inkscape.org/namespaces/inkscape"
   xmlns:sodipodi="http://sodipodi.sourceforge.net/DTD/sodipodi-0.dtd"
   xmlns="http://www.w3.org/2000/svg"
   xmlns:svg="http://www.w3.org/2000/svg"><sodipodi:namedview
     id="namedview1"
     pagecolor="#ffffff"
     bordercolor="#000000"
     borderopacity="0.25"
     inkscape:showpageshadow="2"
     inkscape:pageopacity="0.0"
     inkscape:pagecheckerboard="0"
     inkscape:deskcolor="#d1d1d1"
     inkscape:document-units="mm"
     inkscape:zoom="0.64333922"
     inkscape:cx="372.27639"
     inkscape:cy="414.24491"
     inkscape:window-width="1366"
     inkscape:window-height="705"
     inkscape:window-x="-8"
     inkscape:window-y="-8"
     inkscape:window-maximized="1"
     inkscape:current-layer="svg1" /><defs
     id="defs1" /><g
     id="layer1"
     transform="translate(-6.2156642,-53.121908)"><rect
       style="display:none;fill:#ffd5d5;fill-opacity:1;stroke-width:0.264583"
       id="rect276"
       width="198.24019"
       height="216.50511"
       x="6.2156644"
       y="53.417137" /></g><g
     id="layer2"
     transform="translate(-6.2156642,-53.121908)"><path
       style="fill:#ff4343;fill-opacity:1;stroke-width:2.35544"
       d="m 99.438347,267.64976 c -2.840748,-3.00729 -0.727916,-7.88409 3.415733,-7.88409 2.41512,0 4.59935,2.25502 4.59935,4.74836 0,4.02216 -5.24089,6.07254 -8.015083,3.13573 z m -11.326404,-51.04734 -16.520459,-16.43875 27.14862,-0.1872 c 26.985276,-0.18605 27.171166,-0.19615 30.898166,-1.67865 13.30696,-5.29275 20.93495,-16.23225 20.93495,-30.02327 v -4.84144 h 12.02771 12.02771 l -34.99159,34.80403 c -19.24537,19.14223 -34.99451,34.80404 -34.9981,34.80404 -0.004,0 -7.440735,-7.39744 -16.527007,-16.43874 z M 46.523293,175.24159 34.662065,163.4331 H 46.685694 58.70932 v 11.80849 c 0,6.49471 -0.07306,11.8085 -0.162404,11.8085 -0.08933,0 -5.499952,-5.31379 -12.023629,-11.8085 z m 33.433455,-1.49847 V 163.4331 h 24.684532 24.68452 v 4.23979 c 0,5.74662 -1.3973,9.55139 -4.46764,12.16511 -3.9214,3.33816 -5.83143,3.62372 -26.309906,3.9337 l -18.591506,0.28141 z M 6.2156642,143.30073 V 127.38606 H 14.98468 c 9.342229,0 11.747068,0.52872 14.040728,3.08696 0.948822,1.05829 1.24985,2.27304 1.24985,5.04366 0,3.13815 -0.236939,3.88528 -1.690637,5.33101 l -1.690643,1.68137 2.27951,1.95969 c 2.050438,1.76276 2.278477,2.26663 2.269217,5.01389 -0.0057,1.6798 -0.486324,3.9584 -1.068142,5.06356 -1.84087,3.49665 -3.935923,4.12726 -14.628801,4.40324 l -9.5300978,0.24596 z m 18.4636778,9.90585 c 1.598987,-1.59024 1.969236,-3.96226 0.922174,-5.90798 -0.89768,-1.66815 -3.973847,-2.51053 -9.167852,-2.51053 h -4.593679 v 4.97199 4.97202 h 5.652726 c 5.168427,0 5.784144,-0.1306 7.186631,-1.5255 z m -0.965791,-14.01201 c 0.765874,-0.76167 1.249847,-2.07168 1.249847,-3.38302 0,-3.21467 -1.678551,-4.07499 -7.950604,-4.07499 h -5.172809 v 4.3505 4.3505 h 5.311858 c 4.478624,0 5.507913,-0.19496 6.561708,-1.24299 z m 13.123415,4.03975 v -15.84826 h 10.623713 10.623715 v 2.15667 2.1567 l -7.967784,0.17383 -7.967788,0.17385 v 4.35051 4.3505 l 5.780551,0.17877 5.780553,0.17875 v 2.12859 2.1286 l -5.780553,0.17877 -5.780551,0.17875 v 4.35053 4.35049 l 7.967788,0.17384 7.967784,0.17384 v 2.1567 2.15666 H 47.460679 36.836966 Z m 25.621905,0 v -15.84826 h 2.812155 2.812156 v 13.673 13.67302 h 7.811563 7.811562 v 2.17524 2.17525 H 73.082588 62.458871 Z m 24.996976,0 v -15.84826 h 2.812157 2.812154 v 13.673 13.67302 h 7.499092 7.4991 v 2.17524 2.17525 H 97.767106 87.455847 Z m 24.996973,0 v -15.84826 h 2.81216 2.81218 v 15.84826 15.84825 h -2.81218 -2.81216 z m 19.37268,2.17525 v -13.67301 h -4.99939 -4.9994 v -2.17525 -2.17525 h 12.49848 12.49849 v 2.17525 2.17525 h -4.99941 -4.99936 v 13.67301 13.673 h -2.49972 -2.49969 z m 18.74772,-2.17525 v -15.84826 h 10.93619 10.93618 v 2.17525 2.17525 h -8.12403 -8.12402 v 4.66125 4.66125 h 5.93678 5.93678 v 2.17526 2.17525 h -5.96415 -5.96414 l 0.18349,4.50587 0.18354,4.50589 7.9678,0.17384 7.96778,0.17384 v 2.1567 2.15666 h -10.93617 -10.93619 z m 26.24683,0 v -15.84826 h 2.49969 2.49972 v 6.73291 c 0,3.70311 0.16225,6.89431 0.36057,7.09154 0.19839,0.19732 3.22141,-2.81029 6.71792,-6.68338 l 6.35739,-7.04201 3.32948,-0.0494 3.32948,-0.0494 -2.39211,2.73902 c -1.31564,1.50645 -4.4458,4.98594 -6.95587,7.73221 l -4.56383,4.99323 4.53317,4.85316 c 2.49323,2.66922 5.94343,6.32145 7.6671,8.11602 l 3.1339,3.26286 -3.41573,-0.002 -3.41575,-0.002 -6.87417,-7.44509 c -3.78078,-4.09477 -7.08509,-7.44997 -7.34284,-7.45598 -0.2578,-0.007 -0.46871,3.3452 -0.46871,7.44712 v 7.45799 h -2.49972 -2.49969 z M 46.835757,110.91629 c 6.351637,-6.32377 11.621587,-11.497752 11.711,-11.497752 0.0894,0 0.162569,5.173982 0.162569,11.497752 v 11.49776 H 46.998327 35.287328 Z m 33.120991,1.50321 v -9.99454 l 17.654108,0.21399 c 16.734994,0.20272 17.816814,0.28698 20.778764,1.61613 5.09722,2.28743 7.14133,6.356 7.17172,14.27463 l 0.0142,3.88439 H 102.76581 79.95605 Z m 66.754282,4.43146 c 0.52581,-14.64514 -6.47183,-24.998659 -19.83986,-29.354544 -3.83831,-1.250689 -5.75353,-1.36194 -29.26622,-1.699956 l -25.159127,-0.361696 16.255844,-16.156426 16.255883,-16.15643 34.83694,34.646068 34.83693,34.646074 -14.0601,10e-4 -14.06009,0.001 z"
       id="path1" /></g></svg>
